<?xml version="1.0" encoding="UTF-8" standalone="no"?>
<!-- Created with Inkscape (http://www.inkscape.org/) -->

<svg
   xmlns:dc="http://purl.org/dc/elements/1.1/"
   xmlns:cc="http://creativecommons.org/ns#"
   xmlns:rdf="http://www.w3.org/1999/02/22-rdf-syntax-ns#"
   xmlns:svg="http://www.w3.org/2000/svg"
   xmlns="http://www.w3.org/2000/svg"
   xmlns:sodipodi="http://sodipodi.sourceforge.net/DTD/sodipodi-0.dtd"
   xmlns:inkscape="http://www.inkscape.org/namespaces/inkscape"
   width="1911.5699"
   height="1176.5212"
   id="svg2477"
   sodipodi:version="0.32"
   inkscape:version="0.48.4 r9939"
   sodipodi:docname="Pazlogo.svg"
   inkscape:output_extension="org.inkscape.output.svg.inkscape"
   version="1.0">
  <defs
     id="defs2479">
    <inkscape:perspective
       sodipodi:type="inkscape:persp3d"
       inkscape:vp_x="-50 : 600 : 1"
       inkscape:vp_y="0 : 1000 : 0"
       inkscape:vp_z="700 : 600 : 1"
       inkscape:persp3d-origin="300 : 400 : 1"
       id="perspective2485" />
    <inkscape:perspective
       id="perspective2788"
       inkscape:persp3d-origin="300 : 400 : 1"
       inkscape:vp_z="700 : 600 : 1"
       inkscape:vp_y="0 : 1000 : 0"
       inkscape:vp_x="-50 : 600 : 1"
       sodipodi:type="inkscape:persp3d" />
    <filter
       inkscape:collect="always"
       id="filter4167"
       color-interpolation-filters="sRGB">
      <feGaussianBlur
         inkscape:collect="always"
         stdDeviation="4.8283585"
         id="feGaussianBlur4169" />
    </filter>
  </defs>
  <sodipodi:namedview
     id="base"
     pagecolor="#ffffff"
     bordercolor="#666666"
     borderopacity="1.0"
     gridtolerance="10000"
     guidetolerance="10"
     objecttolerance="10"
     inkscape:pageopacity="0.0"
     inkscape:pageshadow="2"
     inkscape:zoom="0.35"
     inkscape:cx="706.39437"
     inkscape:cy="630.53887"
     inkscape:document-units="px"
     inkscape:current-layer="layer1"
     showgrid="false"
     showguides="true"
     inkscape:guide-bbox="true"
     inkscape:window-width="1280"
     inkscape:window-height="962"
     inkscape:window-x="-8"
     inkscape:window-y="-8"
     fit-margin-top="0"
     fit-margin-left="0"
     fit-margin-right="0"
     fit-margin-bottom="0"
     inkscape:window-maximized="1" />
  <metadata
     id="metadata2482">
    <rdf:RDF>
      <cc:Work
         rdf:about="">
        <dc:format>image/svg+xml</dc:format>
        <dc:type
           rdf:resource="http://purl.org/dc/dcmitype/StillImage" />
      </cc:Work>
    </rdf:RDF>
  </metadata>
  <g
     inkscape:label="Layer 1"
     inkscape:groupmode="layer"
     id="layer1"
     transform="translate(568.38822,275.08973)">
    <path
       inkscape:connector-curvature="0"
       id="path1896"
       style="fill:#ffffff;fill-opacity:1;fill-rule:nonzero;stroke:none"
       d="m -374.99324,-275.08973 c -106.51503,0 -193.39498,86.66881 -193.39498,193.236634 0,48.348739 19.16004,96.750239 52.30742,132.378422 0.6334,0.58061 763.8679,791.261984 763.8679,791.261984 36.20876,38.00338 87.14385,59.64419 139.66241,59.64419 52.41298,0 103.2425,-21.64081 139.29293,-59.43307 L 1290.2409,51.105936 c 33.7807,-36.631047 52.9408,-84.715864 52.9408,-132.959032 0,-106.567824 -86.8272,-193.236634 -193.5533,-193.236634 l -1524.62164,0" />
    <path
       inkscape:connector-curvature="0"
       id="path1908"
       style="fill:#0069aa;fill-opacity:1;fill-rule:nonzero;stroke:none"
       d="M 280.8817,809.90669 -482.30002,19.225315 c -24.17436,-26.1273305 -39.85075,-62.230521 -39.85075,-101.078411 0,-81.179454 65.71416,-147.315884 147.15753,-147.315884 l 1524.62164,0 c 81.6017,0 147.4214,66.13643 147.4214,147.315884 0,38.84789 -15.8875,74.9510805 -39.9035,101.078411 L 493.59506,810.11783 c -26.70794,27.86914 -64.4474,45.28737 -106.14555,45.28737 -41.90928,0 -79.7543,-17.41823 -106.56781,-45.49851" />
    <path
       inkscape:connector-curvature="0"
       id="path1912"
       style="fill:#ffffff;fill-opacity:1;fill-rule:nonzero;stroke:none"
       d="m 387.44951,772.11445 c -18.31553,0 -34.78365,-7.60066 -46.23745,-19.84621 L -421.75851,-37.9381 c -10.60929,-11.453796 -17.10152,-26.971836 -17.10152,-43.914996 0,-35.258694 28.55532,-63.972374 63.86679,-63.972374 l 1524.62164,0 c 35.417,0 64.1307,28.71368 64.1307,63.972374 0,16.94316 -6.5978,32.4612 -17.1016,43.914996 L 433.68695,752.26824 c -11.7177,12.24555 -28.13306,19.84621 -46.23744,19.84621" />
    <path
       inkscape:connector-curvature="0"
       id="path1916"
       style="fill:#ffc708;fill-opacity:1;fill-rule:evenodd;stroke:none"
       d="m 420.64968,739.81157 c -8.18128,8.81468 -20.32126,14.30407 -33.20017,14.30407 -13.24839,0 -24.91333,-5.48939 -33.35853,-14.30407 l 0.2112,0 -763.02336,-790.311906 c -7.49512,-8.12849 -12.24555,-19.21281 -12.24555,-31.35276 0,-25.335614 20.69072,-46.026334 45.97354,-46.026334 l 1524.62159,0 c 25.5468,0 46.1319,20.69072 46.1319,46.026334 0,12.13995 -4.6449,23.22427 -12.1927,31.35276 L 420.64973,739.81157" />
    <path
       inkscape:connector-curvature="0"
       id="path1920"
       style="fill:#ffffff;fill-opacity:1;fill-rule:nonzero;stroke:none"
       d="m 58.034123,80.558545 -31.30002,0 c -13.35395,0 -24.2799203,-10.714831 -24.2799203,-24.174358 l 0,-97.383663 c 0,-13.30117 10.9259703,-24.01603 24.2799203,-24.01603 l 208.068507,0 c 13.35396,0 23.96325,10.71486 23.96325,24.01603 l 0,97.383663 c 0,13.459527 -10.60929,24.174358 -23.96325,24.174358 l -31.30001,0 0,271.671365 c 0,13.24841 -10.71483,24.27992 -24.17436,24.27992 l -97.066947,0 c -13.40677,0 -24.22717,-11.03151 -24.22717,-24.27992 l 0,-271.671365" />
    <path
       inkscape:connector-curvature="0"
       id="path1924"
       style="fill:#ffffff;fill-opacity:1;fill-rule:nonzero;stroke:none"
       d="m 333.40026,80.558545 -31.19444,0 c -13.35396,0 -24.17436,-10.609289 -24.17436,-24.174358 l 0,-97.383663 c 0,-13.30117 10.8204,-24.01603 24.17436,-24.01603 l 391.59312,0 c 13.19563,0 24.06882,10.71486 24.06882,24.01603 l 0,393.334956 c 0,13.35395 -10.87319,24.17435 -24.06882,24.17435 l -391.80424,0 c -13.35398,0 -24.06881,-11.03151 -24.06881,-24.27992 l 0,-99.0199 c 0,-13.19563 10.71483,-24.17439 24.06881,-24.17439 l 270.35179,0 0,-148.160391 -102.34521,0 0,86.088221 c 0,13.35396 -10.60926,24.22714 -24.17435,24.22714 l -88.14675,0 c -13.45952,0 -24.27992,-10.87318 -24.27992,-24.22714 l 0,-86.404905" />
    <path
       inkscape:connector-curvature="0"
       id="path1928"
       style="fill:#0069aa;fill-opacity:1;fill-rule:nonzero;stroke:none"
       d="m 234.80261,-47.069456 -208.068507,0 c -3.48363,0 -6.17554,2.74467 -6.17554,6.06998 l 0,97.383663 c 0,3.483635 2.69191,6.175546 6.17554,6.175546 l 43.28164,0 c 3.06138,0 6.22833,2.269628 6.22833,5.964404 l 0,283.705773 c 0,3.3253 2.69191,6.06997 6.01722,6.06997 l 97.066947,0 c 3.48364,0 6.12276,-2.74467 6.12276,-6.06997 l 0,-283.705773 c 0,-5.06711 4.96154,-5.964404 6.01719,-5.964404 l 43.33442,0 c 3.27252,0 6.12276,-2.691911 6.12276,-6.175546 l 0,-97.383663 c 0,-3.32531 -2.85024,-6.06998 -6.12276,-6.06998" />
    <path
       inkscape:connector-curvature="0"
       id="path1932"
       style="fill:#0069aa;fill-opacity:1;fill-rule:nonzero;stroke:none"
       d="m 699.86895,7.2964775 0,-48.2959535 c 0,-3.32531 -2.85027,-6.06998 -6.07001,-6.06998 l -391.59312,0 c -3.37807,0 -5.96441,2.74467 -5.96441,6.06998 l 0,97.383663 c 0,3.483635 2.58634,6.175546 5.96441,6.175546 l 43.22884,0 c 4.11703,0 6.01719,3.06138 6.01719,5.964404 l 0,98.439313 c 0,3.58921 2.85027,6.22833 6.22833,6.22833 l 88.14675,0 c 3.32527,0 6.28111,-2.63912 6.28111,-6.22833 l 0,-98.122601 c 0,-4.644855 4.43372,-5.964432 5.96441,-5.964432 0,0 122.8776,0 126.09731,0 2.79748,0 6.07,2.164086 6.07,5.964432 0,0 0,167.373181 0,172.123611 0,3.90591 -3.48366,5.96443 -6.07,5.96443 -2.58634,0 -282.17506,0 -282.17506,0 -3.27252,0 -6.07,2.95581 -6.07,6.28112 l 0,99.0199 c 0,3.3253 2.79748,6.06997 6.07,6.06997 l 391.80424,0 c 3.21974,0 6.07001,-2.74467 6.07001,-5.9644 l 0,-344.6695335 c 0,-0.158471 0,-0.263927 0,-0.369469" />
  </g>
</svg>
